<?xml version="1.0" encoding="utf-8"?>
<!-- Generator: Adobe Illustrator 27.5.0, SVG Export Plug-In . SVG Version: 6.00 Build 0)  -->
<svg version="1.1" xmlns="http://www.w3.org/2000/svg" xmlns:xlink="http://www.w3.org/1999/xlink" x="0px" y="0px"
	 viewBox="0 0 750 500" style="enable-background:new 0 0 750 500;" xml:space="preserve">
<g id="BACKGROUND">
	<rect style="fill:#F9EAC5;" width="750" height="500"/>
</g>
<g id="OBJECTS">
	<g>
		<g>
			<g>
				
					<line style="fill:none;stroke:#FFFFFF;stroke-width:1.5;stroke-miterlimit:10;" x1="73.679" y1="60.236" x2="266.651" y2="60.236"/>
				<path style="fill:none;stroke:#FFFFFF;stroke-width:1.5;stroke-miterlimit:10;" d="M262.546,218.889H77.785
					c-2.267,0-4.105-1.838-4.105-4.105V43.734c0-2.267,1.838-4.105,4.105-4.105h184.761c2.267,0,4.105,1.838,4.105,4.105v171.049
					C266.651,217.051,264.813,218.889,262.546,218.889z"/>
				<g>
					<path style="fill:#3B3332;" d="M93.798,50.142c0,1.588-1.287,2.876-2.876,2.876c-1.588,0-2.875-1.288-2.875-2.876
						s1.287-2.875,2.875-2.875C92.511,47.267,93.798,48.554,93.798,50.142z"/>
					<path style="fill:#3B3332;" d="M104.974,50.142c0,1.588-1.287,2.876-2.876,2.876s-2.875-1.288-2.875-2.876
						s1.287-2.875,2.875-2.875S104.974,48.554,104.974,50.142z"/>
					<path style="fill:#3B3332;" d="M116.149,50.142c0,1.588-1.287,2.876-2.876,2.876c-1.588,0-2.875-1.288-2.875-2.876
						s1.287-2.875,2.875-2.875C114.862,47.267,116.149,48.554,116.149,50.142z"/>
				</g>
			</g>
			<g>
				<g>
					<rect x="89.384" y="71.39" style="fill:#FFFFFF;" width="162.159" height="110.098"/>
				</g>
				<rect x="89.086" y="178.824" style="fill:#3B3332;" width="162.457" height="28.326"/>
				<g>
					<defs>
						<rect id="SVGID_1_" x="89.384" y="71.39" width="162.159" height="107.435"/>
					</defs>
					<clipPath id="SVGID_00000123405073050611278030000017995692334630057383_">
						<use xlink:href="#SVGID_1_"  style="overflow:visible;"/>
					</clipPath>
					<g style="clip-path:url(#SVGID_00000123405073050611278030000017995692334630057383_);">
						<path style="fill:#325692;" d="M156.129,159.239l-23.915,12.373c-8.137,4.21-14.235,11.521-16.917,20.281l-0.325,1.062
							h102.832l0,0c-2.16-10.601-9.228-19.545-19.042-24.098l-18.631-8.643L156.129,159.239z"/>
						<g>
							<path style="fill:#B2763F;" d="M188.02,83.816c0,0,10.674,4.767,3.892,15.28l-11.78-10.12L188.02,83.816z"/>
							<polygon style="fill:#B2763F;" points="154.468,122.384 158.507,130.927 161.382,122.727 							"/>
							<path style="fill:#D89170;" d="M184.457,122.972c0.098-2.424,0.581-4.827,1.524-7.101c1.294-3.118,2.568-5.937,6.086-4.709
								c7.067,2.466,1.434,12.952-4.341,14.158C186.027,125.674,184.395,124.497,184.457,122.972L184.457,122.972z"/>
							<polygon style="fill:#EBB392;" points="159.267,121.039 156.129,159.239 180.132,160.214 178.365,128.388 							"/>
							<polygon points="179.446,148.572 163.852,135.286 178.723,132.271 							"/>
							<path style="fill:#EBB392;" d="M192.565,97.119l-0.93,20.742c0,0,0.509,21.076-12.203,21.481
								c-14.654,0.467-21.325-7.293-20.297-14.87l-2.873-12.319l-0.289-18.717c0.129-5.153,4.661-11.424,15.052-11.002l11.894,0.483
								C188.537,83.147,192.772,92.02,192.565,97.119z"/>
							<g>
								<path style="fill:#B2763F;" d="M165.729,101.948l8.822-1.632c1.388-0.113,2.376-1.397,2.13-2.768l0,0
									c-0.223-1.238-1.378-2.083-2.625-1.92l-8.739,2.414c-1.056,0.138-1.809,1.091-1.7,2.15l0,0
									C163.727,101.255,164.665,102.034,165.729,101.948z"/>
								<path style="fill:#B2763F;" d="M191.782,102.913l-5.398-2.08c-1.361-0.293-2.173-1.696-1.749-3.023l0,0
									c0.383-1.198,1.639-1.884,2.854-1.56l5.213,2.845c1.029,0.275,1.651,1.319,1.403,2.354l0,0
									C193.858,102.488,192.826,103.138,191.782,102.913z"/>
								
									<path style="fill:none;stroke:#000000;stroke-width:0.3592;stroke-linecap:round;stroke-linejoin:round;stroke-miterlimit:10;" d="
									M180.867,121.837l0.873-0.191c1.213-0.266,1.93-1.522,1.543-2.701l-1.658-5.058"/>
								
									<line style="fill:none;stroke:#D89170;stroke-width:0.3066;stroke-linecap:round;stroke-linejoin:round;stroke-miterlimit:10;" x1="175.753" y1="113.323" x2="172.117" y2="114.509"/>
								
									<line style="fill:none;stroke:#D89170;stroke-width:0.3066;stroke-linecap:round;stroke-linejoin:round;stroke-miterlimit:10;" x1="183.907" y1="113.446" x2="186.888" y2="115.097"/>
								
									<path style="fill:none;stroke:#000000;stroke-width:0.511;stroke-linecap:round;stroke-linejoin:round;stroke-miterlimit:10;" d="
									M175.753,111.143c0,0-2.33-2.707-8.007-1.091"/>
								
									<path style="fill:none;stroke:#000000;stroke-width:0.48;stroke-linecap:round;stroke-linejoin:round;stroke-miterlimit:10;" d="
									M183.907,111.385c0,0,2.438-2.535,6.553-1.091"/>
								<path style="fill:#FFFFFF;" d="M184.924,124.953l-11.389-0.619c0,0,0.841,3.977,5.547,4.32
									C184.26,129.033,184.924,124.953,184.924,124.953z"/>
							</g>
							<path style="fill:#B2763F;" d="M191.216,81.376c-0.717-7.9-10.377-7.674-16.926-4.74
								c-6.549,2.934-30.023,0.225-24.946,19.962l3.312,15.052l5.898,2.777l0.708-3.251c1.189-5.458,1.454-11.069,0.808-16.604
								l0.009,0c0,0,1.413-8.682,10.838-7.328C180.343,88.599,191.932,89.276,191.216,81.376z"/>
							<g>
								<path style="fill:#EBB392;" d="M159.879,122.703c0.099-2.424-0.187-4.858-0.943-7.201c-1.037-3.213-2.828-6.343-6.38-5.216
									c-8.831,2.802-1.785,12.821,3.874,14.492C158.094,125.269,159.817,124.229,159.879,122.703L159.879,122.703z"/>
								
									<line style="fill:none;stroke:#000000;stroke-width:0.3592;stroke-linecap:round;stroke-linejoin:round;stroke-miterlimit:10;" x1="152.426" y1="114.779" x2="157.241" y2="119.17"/>
							</g>
						</g>
						<polygon style="fill:#EBB392;" points="156.129,159.239 181.27,171.252 180.132,160.214 						"/>
					</g>
				</g>
				<g>
					<circle style="fill:#446FC9;" cx="172.314" cy="195.235" r="10.066"/>
					<g>
						
							<line style="fill:none;stroke:#FFFFFF;stroke-width:1.0865;stroke-miterlimit:10;" x1="169.183" y1="191.912" x2="175.65" y2="198.379"/>
						
							<line style="fill:none;stroke:#FFFFFF;stroke-width:1.0865;stroke-miterlimit:10;" x1="175.65" y1="191.912" x2="169.183" y2="198.379"/>
					</g>
				</g>
			</g>
		</g>
		<g>
			<g>
				
					<line style="fill:none;stroke:#FFFFFF;stroke-width:1.5;stroke-miterlimit:10;" x1="659.494" y1="118.413" x2="478.284" y2="118.413"/>
				<path style="fill:none;stroke:#FFFFFF;stroke-width:1.5;stroke-miterlimit:10;" d="M482.266,294.871h173.246
					c2.199,0,3.982-1.783,3.982-3.982V102.407c0-2.199-1.783-3.982-3.982-3.982H482.266c-2.199,0-3.982,1.783-3.982,3.982v188.482
					C478.284,293.088,480.067,294.871,482.266,294.871z"/>
			</g>
			<g>
				<g>
					<path style="fill:#F8E7C1;" d="M701.375,233.087H537.804c-2.695,0-4.88-2.185-4.88-4.88v-50.053c0-2.695,2.185-4.88,4.88-4.88
						h163.571c2.695,0,4.88,2.185,4.88,4.88v50.053C706.254,230.902,704.07,233.087,701.375,233.087z"/>
					<path style="fill:none;stroke:#FFFFFF;stroke-width:1.5;stroke-miterlimit:10;" d="M701.375,233.087H537.804
						c-2.695,0-4.88-2.185-4.88-4.88v-50.053c0-2.695,2.185-4.88,4.88-4.88h163.571c2.695,0,4.88,2.185,4.88,4.88v50.053
						C706.254,230.902,704.07,233.087,701.375,233.087z"/>
				</g>
				
					<ellipse transform="matrix(0.9255 -0.3788 0.3788 0.9255 -34.1381 229.9903)" style="fill:#446FC9;" cx="567.447" cy="201.757" rx="16.727" ry="16.727"/>
				<g>
					
						<line style="fill:none;stroke:#000000;stroke-width:0.7029;stroke-linecap:round;stroke-linejoin:round;stroke-miterlimit:10;" x1="599.6" y1="196.926" x2="689.724" y2="196.926"/>
					
						<line style="fill:none;stroke:#000000;stroke-width:0.7029;stroke-linecap:round;stroke-linejoin:round;stroke-miterlimit:10;" x1="599.6" y1="209.154" x2="632.248" y2="209.154"/>
				</g>
			</g>
			<g>
				<g>
					<g>
						<path style="fill:#FFFFFF;" d="M419.199,218.029c-0.257,0.3-0.748,0.118-0.747-0.277l0.026-8.228v-16.455
							c0-1.627,1.319-2.946,2.946-2.946h67.899c1.627,0,2.946,1.319,2.946,2.946v17.589c0,1.627-1.319,2.946-2.946,2.946h-66.334
							L419.199,218.029z"/>
					</g>
				</g>
				
					<line style="fill:none;stroke:#000000;stroke-width:0.7029;stroke-linecap:round;stroke-linejoin:round;stroke-miterlimit:10;" x1="431.085" y1="198.6" x2="480.271" y2="198.6"/>
				
					<line style="fill:none;stroke:#000000;stroke-width:0.7029;stroke-linecap:round;stroke-linejoin:round;stroke-miterlimit:10;" x1="431.085" y1="205.573" x2="451.824" y2="205.573"/>
			</g>
			<g>
				<g>
					<g>
						<path style="fill:#F8E7C1;" d="M439.203,136.943h112.125c2.882,0,5.218-2.336,5.218-5.218V50.846
							c0-2.882-2.336-5.218-5.218-5.218H439.203c-2.882,0-5.218,2.336-5.218,5.218v80.879
							C433.985,134.607,436.321,136.943,439.203,136.943z"/>
						<path style="fill:none;stroke:#FFFFFF;stroke-width:1.5;stroke-miterlimit:10;" d="M439.203,136.943h112.125
							c2.882,0,5.218-2.336,5.218-5.218V50.846c0-2.882-2.336-5.218-5.218-5.218H439.203c-2.882,0-5.218,2.336-5.218,5.218v80.879
							C433.985,134.607,436.321,136.943,439.203,136.943z"/>
					</g>
				</g>
				<g>
					<g>
						<path style="fill:#3B3332;" d="M467.243,110.874c-0.355,0.414-1.034,0.162-1.032-0.383l0.035-11.37V77.636
							c0-2.248,1.823-4.071,4.071-4.071h49.536c2.248,0,4.07,1.822,4.07,4.071v23.051c0,2.248-1.822,4.071-4.07,4.071h-47.374
							L467.243,110.874z"/>
						<g>
							<path style="fill:#FFFFFF;" d="M504.809,88.807c-0.004,1.434,1.155,2.6,2.589,2.605c1.434,0.004,2.6-1.154,2.604-2.588
								c0.005-1.434-1.154-2.6-2.589-2.605C505.98,86.214,504.814,87.373,504.809,88.807z"/>
							<path style="fill:#FFFFFF;" d="M493.672,88.772c-0.004,1.434,1.154,2.6,2.589,2.605c1.434,0.005,2.6-1.154,2.605-2.589
								c0.004-1.434-1.155-2.6-2.589-2.605C494.842,86.179,493.676,87.338,493.672,88.772z"/>
							<path style="fill:#FFFFFF;" d="M482.534,88.737c-0.004,1.434,1.155,2.6,2.589,2.605c1.434,0.004,2.6-1.155,2.605-2.589
								c0.004-1.434-1.154-2.6-2.589-2.605C483.705,86.145,482.538,87.303,482.534,88.737z"/>
						</g>
					</g>
				</g>
			</g>
		</g>
		<g>
			<g>
				<g>
					<path style="fill:none;stroke:#FFFFFF;stroke-width:1.5;stroke-miterlimit:10;" d="M50.521,338.504h112.126
						c2.882,0,5.218-2.336,5.218-5.218v-67.879c0-2.882-2.336-5.218-5.218-5.218H50.521c-2.882,0-5.218,2.336-5.218,5.218v67.879
						C45.303,336.168,47.639,338.504,50.521,338.504z"/>
				</g>
			</g>
			<g>
				<path style="fill:#446FC9;" d="M113.606,315.951H86.356c-2.437,0-4.412-1.975-4.412-4.412v-23.518
					c0-2.437,1.975-4.412,4.412-4.412h27.249c2.437,0,4.412,1.975,4.412,4.412v23.518
					C118.018,313.976,116.043,315.951,113.606,315.951z"/>
				<path style="fill:#446FC9;" d="M121.323,294.144v9.805c0,0.53,0.291,1.018,0.758,1.269l11.546,6.212
					c0.96,0.517,2.124-0.179,2.124-1.269v-20.608c0-1.018-1.027-1.716-1.974-1.339l-11.546,4.591
					C121.683,293.023,121.323,293.554,121.323,294.144z"/>
			</g>
		</g>
		<g>
			<path style="fill:#FFFFFF;" d="M679.497,343.125h-13.503c-0.689,0-1.247-0.558-1.247-1.247v-13.503
				c0-0.689,0.558-1.247,1.247-1.247h13.503c0.689,0,1.247,0.558,1.247,1.247v13.503
				C680.744,342.566,680.186,343.125,679.497,343.125z"/>
			<path style="fill:#FFFFFF;" d="M41.285,150.387H27.781c-0.689,0-1.247-0.558-1.247-1.247v-13.503
				c0-0.689,0.558-1.247,1.247-1.247h13.503c0.689,0,1.247,0.558,1.247,1.247v13.503C42.532,149.829,41.973,150.387,41.285,150.387z
				"/>
			<path style="fill:#FFFFFF;" d="M617.545,67.986h-9.266c-0.473,0-0.856-0.383-0.856-0.856v-9.266c0-0.473,0.383-0.856,0.856-0.856
				h9.266c0.473,0,0.856,0.383,0.856,0.856v9.266C618.401,67.603,618.018,67.986,617.545,67.986z"/>
			
				<line style="fill:none;stroke:#446FC9;stroke-width:3;stroke-linecap:round;stroke-linejoin:round;stroke-miterlimit:10;" x1="691.744" y1="74.018" x2="691.744" y2="127.304"/>
			
				<line style="fill:none;stroke:#446FC9;stroke-width:3;stroke-linecap:round;stroke-linejoin:round;stroke-miterlimit:10;" x1="41.534" y1="191.823" x2="41.534" y2="221.478"/>
		</g>
	</g>
	<g>
		<rect y="405.231" style="fill:#FAF0D8;" width="750" height="94.769"/>
		<g>
			<ellipse style="fill:#F8E7C1;" cx="137.272" cy="441.277" rx="34.917" ry="7.549"/>
			<g>
				<g>
					<path style="fill:#FFFFFF;" d="M153.678,393.047c0,0,8.787,53.771-31.339,55.729c-40.127,1.958-30.701-55.729-30.701-55.729
						H153.678z"/>
					<path style="fill:#FFFFFF;" d="M88.887,433.72c-9.567,0.286-17.584-7.267-17.87-16.834c-0.286-9.567,7.266-17.584,16.834-17.87
						c9.567-0.286,17.584,7.266,17.87,16.834C106.007,425.417,98.455,433.434,88.887,433.72z M88.017,404.565
						c-6.508,0.194-11.645,5.648-11.451,12.156c0.194,6.508,5.648,11.645,12.156,11.451c6.508-0.194,11.645-5.648,11.451-12.156
						C99.979,409.508,94.525,404.371,88.017,404.565z"/>
					<path d="M153.678,393.047c0,2.186-13.888,3.959-31.02,3.959c-17.132,0-31.02-1.772-31.02-3.959
						c0-2.186,13.888-3.959,31.02-3.959C139.79,389.089,153.678,390.861,153.678,393.047z"/>
				</g>
			</g>
		</g>
		<g>
			<g>
				<g>
					<g>
						<path style="fill:#9C6752;" d="M405.682,266.112c11.075,18.045,53.513,89.677,67.244,122.992
							c5.891,14.292-1.341,30.63-15.836,36.002h0c-13.105,4.857-27.764-0.943-33.999-13.452l-64.278-119.467
							c-6.913-13.872-0.676-30.699,13.608-36.714l0,0C384.615,250.338,398.761,254.836,405.682,266.112z"/>
						<path style="fill:#FFFFFF;" d="M410.541,258.21c8.052,11.049,28.632,42.556,28.632,42.556l-71.529,43.647l-22.612-47.262
							c-7.089-14.818-3.928-32.507,7.854-43.952l0,0C369.617,236.944,396.803,239.357,410.541,258.21z"/>
					</g>
					<g>
						<g>
							<path style="fill:#FFFFFF;" d="M400.208,268.324c0.461-12.714-1.403-22.656-13.696-25.932
								c-9.773-2.605-26.232-5.407-26.232-5.407h-45.119c0,0-45.14,5.714-54.318,8.655c-14.129,4.527-15.785,22.695-15.396,37.526
								l-6.756,122.065h155.365L400.208,268.324z"/>
						</g>
						
							<line style="fill:none;stroke:#000000;stroke-width:0.7029;stroke-linecap:round;stroke-linejoin:round;stroke-miterlimit:10;" x1="397.61" y1="326.127" x2="399.567" y2="285.57"/>
						<path style="fill:#9C6752;" d="M304.286,238.09l10.875-1.105h46.211l10.682,2.179c0,0,11.608,23.743-24.873,22.997
							C310.7,261.416,304.286,238.09,304.286,238.09z"/>
					</g>
					<g>
						<g>
							<path style="fill:#9C6752;" d="M246.346,270.654c-10.077,18.62-51.557,86.455-63.455,120.467
								c-5.105,14.592,3.005,30.512,17.771,35.088v0c13.35,4.137,26.672-2.452,32.217-15.282l61.685-116.786
								c6.149-14.227-0.995-30.691-15.585-35.92h0C266.524,253.758,252.644,259.018,246.346,270.654z"/>
							<g>
								<path style="fill:#FFFFFF;" d="M239.752,260.143c-8.052,11.049-32.764,47.067-32.764,47.067l71.692,37.202l26.581-45.329
									c7.089-14.818,3.928-32.507-7.854-43.952v0C280.676,238.877,253.49,241.29,239.752,260.143z"/>
								
									<polyline style="fill:none;stroke:#000000;stroke-width:0.7029;stroke-linecap:round;stroke-linejoin:round;stroke-miterlimit:10;" points="
									270.194,340.279 278.68,344.412 302.587,304.083 								"/>
							</g>
						</g>
						<g>
							<path style="fill:#9C6752;" d="M357.328,399.009c0,0,39.389-22.805,58.156,21.221h-66.291L357.328,399.009z"/>
							<g>
								<path style="fill:#9C6752;" d="M206.177,427.322c0,0,66.456,3.893,143.016-7.092l8.136-21.221L222.426,381.87
									L206.177,427.322z"/>
								
									<line style="fill:none;stroke:#000000;stroke-width:0.7029;stroke-linecap:round;stroke-linejoin:round;stroke-miterlimit:10;" x1="218.881" y1="381.42" x2="246.116" y2="384.88"/>
							</g>
						</g>
					</g>
				</g>
				<g>
					<polygon points="314.759,162.789 318.785,188.374 325.037,162.789 					"/>
					<path style="fill:#804B3B;" d="M370.19,163.268c0.193-4.743,1.136-9.446,2.983-13.894c2.532-6.102,5.025-11.617,11.91-9.215
						c13.828,4.825,2.807,25.344-8.495,27.704C373.263,168.557,370.069,166.254,370.19,163.268L370.19,163.268z"/>
					<polygon style="fill:#9C6752;" points="320.899,159.486 314.759,242.416 361.727,244.325 358.27,173.867 					"/>
					<polygon points="360.355,216.98 334.007,192.517 358.655,181.824 					"/>
					<path style="fill:#9C6752;" d="M386.055,112.68l-2.017,49.63c0,0,0.88,35.2-23.994,35.992
						c-28.674,0.914-41.415-17.272-39.405-32.097l-5.621-24.106l-0.566-36.624c0.252-10.084,9.121-22.355,29.453-21.528
						l23.273,0.946C378.173,85.34,386.46,102.703,386.055,112.68z"/>
					<g>
						<path d="M332.572,119.213l17.551,0.393c2.704,0.338,5.11-1.729,5.183-4.453l0,0c0.067-2.46-1.81-4.539-4.264-4.725
							l-17.705,1.14c-2.077-0.157-3.901,1.369-4.113,3.441l0,0C329.012,117.087,330.499,118.954,332.572,119.213z"/>
						<path d="M387.091,121.312l-11.29-0.807c-2.715,0.229-5.036-1.933-5-4.657l0,0c0.032-2.461,1.99-4.463,4.45-4.55l11.382,2.344
							c2.082-0.074,3.843,1.524,3.972,3.604l0,0C390.733,119.33,389.173,121.136,387.091,121.312z"/>
						
							<path style="fill:none;stroke:#000000;stroke-width:0.7029;stroke-linecap:round;stroke-linejoin:round;stroke-miterlimit:10;" d="
							M363.164,161.047l1.708-0.375c2.373-0.52,3.777-2.977,3.02-5.286l-3.245-9.896"/>
						
							<line style="fill:none;stroke:#804B3B;stroke-width:0.6282;stroke-linecap:round;stroke-linejoin:round;stroke-miterlimit:10;" x1="353.158" y1="144.389" x2="346.043" y2="148.708"/>
						
							<line style="fill:none;stroke:#804B3B;stroke-width:0.6282;stroke-linecap:round;stroke-linejoin:round;stroke-miterlimit:10;" x1="369.114" y1="144.628" x2="374.948" y2="147.86"/>
						<path style="fill:#FFFFFF;" d="M347.181,164.6c0,0,8.368,4.165,22.139,3.026C369.32,167.626,358.25,176.414,347.181,164.6z"/>
						
							<line style="fill:none;stroke:#804B3B;stroke-width:0.6282;stroke-linecap:round;stroke-linejoin:round;stroke-miterlimit:10;" x1="357.681" y1="175.488" x2="363.88" y2="175.488"/>
						<g>
							<g>
								<defs>
									<path id="XMLID_4_" d="M334.891,139.259l19.397,2.746c0,0-0.024-8.11-9.317-8.74
										C335.678,132.635,334.891,139.259,334.891,139.259z"/>
								</defs>
								<use xlink:href="#XMLID_4_"  style="overflow:visible;fill:#FFFFFF;"/>
								<clipPath id="XMLID_00000037690981870078834760000012364430205686366873_">
									<use xlink:href="#XMLID_4_"  style="overflow:visible;"/>
								</clipPath>
								<path style="clip-path:url(#XMLID_00000037690981870078834760000012364430205686366873_);" d="M349.809,136.857
									c0.166,2.412-1.654,4.502-4.066,4.669s-4.502-1.654-4.668-4.066c-0.166-2.412,1.654-4.502,4.066-4.669
									C347.553,132.624,349.643,134.445,349.809,136.857z"/>
							</g>
							
								<path style="fill:none;stroke:#000000;stroke-width:0.7029;stroke-linecap:round;stroke-linejoin:round;stroke-miterlimit:10;" d="
								M354.288,142.005c0,0-0.935-7.795-8.95-8.694c-8.67-0.972-10.446,5.948-10.446,5.948"/>
						</g>
						<g>
							<g>
								<defs>
									<path id="XMLID_3_" d="M382.936,141.091l-14.076,0.762c0,0,0.979-8.039,7.642-7.724
										C383.164,134.444,382.936,141.091,382.936,141.091z"/>
								</defs>
								<use xlink:href="#XMLID_3_"  style="overflow:visible;fill:#FFFFFF;"/>
								<clipPath id="XMLID_00000141422986802167193560000001158363238280290222_">
									<use xlink:href="#XMLID_3_"  style="overflow:visible;"/>
								</clipPath>
								<path style="clip-path:url(#XMLID_00000141422986802167193560000001158363238280290222_);" d="M372.646,137.201
									c-0.404,2.375,0.639,4.632,2.329,5.04c1.69,0.409,3.388-1.185,3.792-3.56c0.404-2.375-0.639-4.632-2.329-5.04
									C374.747,133.232,373.05,134.826,372.646,137.201z"/>
							</g>
							
								<path style="fill:none;stroke:#000000;stroke-width:0.5943;stroke-linecap:round;stroke-linejoin:round;stroke-miterlimit:10;" d="
								M368.86,141.853c0,0,1.587-7.635,7.376-7.716c6.262-0.087,6.7,6.954,6.7,6.954"/>
						</g>
					</g>
					<polygon points="321.652,101.975 325.037,121.156 319.505,146.548 311.057,141.115 309.215,105.475 					"/>
					<g>
						<path style="fill:#9C6752;" d="M322.096,162.742c0.193-4.743-0.366-9.507-1.845-14.09
							c-2.029-6.287-5.534-12.412-12.485-10.206c-17.281,5.484-3.492,25.088,7.581,28.357
							C318.604,167.764,321.975,165.728,322.096,162.742L322.096,162.742z"/>
						
							<line style="fill:none;stroke:#000000;stroke-width:0.7029;stroke-linecap:round;stroke-linejoin:round;stroke-miterlimit:10;" x1="307.513" y1="147.237" x2="316.934" y2="155.829"/>
					</g>
					<g>
						<path style="fill:#325692;" d="M309.104,105.475h76.965v-0.111c0-15.276-7.926-32.431-27.138-32.431h-22.689
							C318.525,72.933,309.044,90.156,309.104,105.475L309.104,105.475z"/>
						<path style="fill:#446FC9;" d="M415.252,100.822H309.104v4.653h106.148c1.285,0,2.327-1.042,2.327-2.327l0,0
							C417.579,101.864,416.537,100.822,415.252,100.822z"/>
					</g>
				</g>
			</g>
			<g>
				<path style="fill:#3B3332;" d="M460.18,276.329l-48.846,143.739h187.965l46.585-142.341c1.25-5.86-3.219-11.382-9.21-11.382
					H472.684C466.696,266.345,461.505,270.49,460.18,276.329z"/>
				<rect x="411.334" y="420.068" style="fill:#554847;" width="188.98" height="12"/>
				<path style="fill:#1D161A;" d="M314.037,432.069h97.297v-12h-85.297C319.409,420.068,314.037,425.441,314.037,432.069
					L314.037,432.069z"/>
				
					<ellipse transform="matrix(0.3562 -0.9344 0.9344 0.3562 29.5422 732.3785)" style="fill:#554847;" cx="546.257" cy="344.751" rx="14.69" ry="13.199"/>
			</g>
		</g>
	</g>
</g>
</svg>
